<?xml version="1.0" standalone="no"?>
<!DOCTYPE svg PUBLIC "-//W3C//DTD SVG 20010904//EN"
 "http://www.w3.org/TR/2001/REC-SVG-20010904/DTD/svg10.dtd">
    <svg version="1.0" xmlns="http://www.w3.org/2000/svg"
    width="3844.000000pt" height="2976.000000pt" viewBox="0 0 3844.000000 2976.000000"
    preserveAspectRatio="xMidYMid meet">

    <g transform="translate(0.000000,2976.000000) scale(0.100000,-0.100000)"
        fill="#000000" stroke="none">
        <path d="M22603 21064 c-102 -15 -153 -36 -197 -83 l-30 -31 18 -108 c32 -187
        34 -213 35 -414 1 -206 -9 -349 -36 -483 -21 -108 -23 -112 -85 -120 -248 -33
        -675 -125 -932 -201 -65 -19 -122 -34 -126 -32 -3 2 -34 35 -67 73 -34 39
        -123 133 -199 210 -211 213 -390 443 -607 783 l-92 143 -34 -6 c-84 -16 -163
        -49 -251 -106 -112 -72 -140 -96 -140 -121 0 -10 20 -55 44 -101 34 -62 54
        -120 85 -242 22 -88 45 -187 51 -220 22 -120 31 -352 24 -643 l-7 -292 -146
        -87 c-252 -149 -510 -329 -756 -527 -110 -89 -340 -293 -394 -350 -19 -20 -40
        -36 -46 -36 -15 0 -114 106 -140 151 -11 18 -32 40 -47 49 -26 14 -31 13 -71
        -8 -52 -27 -133 -129 -173 -216 l-26 -58 61 -124 c33 -68 61 -130 61 -137 0
        -8 -22 -39 -50 -71 -205 -234 -458 -583 -630 -866 -35 -58 -65 -107 -67 -109
        -6 -8 -144 39 -273 94 -69 29 -206 80 -305 114 -99 35 -286 103 -415 152 -129
        49 -284 106 -345 128 -174 63 -361 145 -605 266 -255 126 -651 298 -790 343
        -96 31 -246 66 -332 77 l-48 6 0 67 c0 83 -22 134 -78 184 -63 57 -104 71
        -202 72 -75 0 -93 -4 -150 -30 -124 -59 -195 -158 -194 -269 3 -219 284 -322
        494 -180 29 19 53 35 55 35 2 0 9 -17 16 -37 6 -21 22 -56 34 -78 13 -22 44
        -80 70 -130 58 -112 239 -407 322 -523 34 -48 143 -208 244 -357 100 -148 206
        -300 236 -338 30 -38 53 -70 51 -72 -9 -9 -229 -35 -357 -41 -79 -4 -183 -14
        -231 -24 l-88 -16 -4 75 c-5 88 -21 124 -80 181 -61 58 -134 83 -228 78 -312
        -19 -413 -386 -145 -526 43 -22 63 -26 140 -27 79 0 97 3 147 28 33 16 75 48
        98 74 47 54 32 64 140 -92 60 -88 162 -217 274 -351 45 -54 79 -111 69 -117
        -4 -3 -46 -8 -93 -12 -47 -3 -191 -19 -320 -35 -129 -16 -302 -34 -385 -40
        -219 -16 -672 -58 -805 -75 -63 -8 -173 -19 -245 -25 -242 -20 -558 -71 -655
        -105 -23 -8 -45 -15 -49 -15 -3 0 -6 37 -6 83 -1 71 -5 91 -32 150 -134 285
        -548 355 -821 138 -184 -146 -220 -386 -83 -559 109 -138 335 -211 533 -172
        139 27 283 122 345 227 14 24 27 43 30 43 3 0 31 -22 62 -48 167 -144 426
        -309 741 -472 124 -64 304 -161 400 -214 96 -54 220 -123 275 -154 219 -121
        851 -521 868 -549 4 -6 -41 -33 -99 -62 -58 -28 -194 -99 -302 -157 -108 -59
        -279 -148 -378 -198 l-182 -91 -22 42 c-66 125 -221 199 -380 182 -84 -9 -144
        -35 -199 -84 -59 -53 -78 -84 -95 -149 -37 -142 44 -285 204 -359 37 -17 65
        -21 160 -21 107 -1 119 1 167 26 29 16 68 42 87 58 38 34 86 121 86 157 0 29
        14 29 82 -1 61 -27 234 -86 413 -140 513 -157 576 -185 583 -256 7 -65 -19
        -172 -60 -253 -61 -118 -192 -231 -425 -366 -32 -19 -181 -96 -331 -173 -151
        -76 -307 -159 -347 -183 -41 -25 -80 -45 -87 -45 -8 0 -20 15 -26 34 -21 57
        -96 132 -170 168 -62 31 -73 33 -172 33 -95 0 -111 -3 -168 -29 -149 -69 -204
        -220 -130 -358 36 -69 89 -116 174 -155 53 -25 70 -28 164 -28 127 0 185 22
        253 94 43 46 59 80 71 152 l6 36 73 -3 c39 -2 113 -6 162 -8 118 -6 853 -62
        1070 -81 191 -17 1081 -38 1135 -27 l34 8 -59 16 c-48 14 -141 19 -470 28
        -225 6 -448 15 -495 20 -80 9 -282 24 -920 70 -146 11 -293 20 -327 20 -35 0
        -63 4 -63 9 0 15 83 60 360 196 132 66 384 204 450 249 78 52 187 145 230 194
        47 55 118 191 125 242 3 19 8 67 11 105 6 66 5 73 -19 101 -14 17 -52 44 -84
        61 -59 31 -264 99 -448 148 -200 54 -555 188 -555 210 0 19 9 24 235 140 116
        59 239 123 275 143 211 113 383 199 444 222 110 40 117 31 -159 216 -269 181
        -536 344 -820 502 -99 54 -196 108 -215 119 -34 19 -106 58 -245 133 -38 21
        -137 72 -219 115 -149 76 -269 149 -421 254 -92 63 -238 179 -243 192 -13 35
        384 105 728 129 80 5 156 12 170 15 34 7 701 72 875 85 77 6 192 17 255 25 63
        8 209 24 324 35 115 11 215 25 222 31 8 6 14 26 14 44 0 27 -24 63 -126 196
        -70 90 -148 187 -174 216 -27 29 -57 72 -69 96 -11 23 -32 58 -46 76 -13 19
        -22 37 -20 41 8 14 121 30 274 39 179 12 426 39 459 52 12 5 22 15 22 23 0 9
        -10 21 -22 27 -13 7 -33 24 -45 38 -12 14 -35 41 -52 59 -16 19 -108 152 -205
        295 -96 144 -194 289 -218 323 -87 124 -128 183 -128 188 0 2 -41 69 -91 148
        -93 144 -112 177 -189 323 -23 44 -48 91 -56 105 -7 14 -16 44 -20 68 -7 42
        -6 42 24 42 85 0 367 -77 497 -135 28 -13 131 -59 230 -103 99 -44 245 -111
        325 -150 80 -38 188 -90 240 -115 153 -73 270 -123 402 -171 213 -78 360 -133
        443 -166 44 -18 166 -61 270 -96 306 -103 485 -176 485 -198 0 -15 3 -16 15
        -6 12 10 26 8 75 -10 91 -34 95 -45 39 -130 -8 -14 -35 -61 -59 -105 -23 -44
        -58 -104 -76 -133 -50 -78 -108 -198 -134 -277 -13 -38 -54 -137 -91 -220 -38
        -82 -69 -157 -69 -166 0 -9 -13 -54 -29 -100 -40 -116 -108 -335 -120 -389 -5
        -25 -17 -91 -26 -148 -9 -57 -23 -127 -31 -155 -8 -29 -23 -97 -35 -152 -11
        -55 -31 -134 -44 -175 -12 -41 -30 -124 -39 -185 -10 -60 -24 -126 -33 -145
        -11 -24 -12 -35 -5 -38 8 -2 9 -10 3 -20 -4 -9 -11 -39 -14 -67 -3 -27 -9 -59
        -13 -69 -7 -18 -3 -19 69 -12 92 8 492 108 666 166 68 22 130 39 137 36 20 -8
        17 -44 -5 -55 -84 -46 -659 -197 -788 -208 -39 -3 -76 -9 -82 -12 -16 -11 -29
        -94 -36 -238 -7 -121 -6 -132 11 -143 17 -10 17 -11 2 -6 -14 4 -18 -1 -18
        -23 0 -16 7 -31 15 -35 11 -4 15 -20 15 -58 0 -34 6 -62 17 -78 15 -21 19 -86
        35 -469 9 -246 22 -471 28 -501 6 -30 24 -145 40 -255 45 -304 49 -328 92
        -500 22 -88 41 -171 42 -185 1 -24 -1 -25 -44 -20 -76 8 -303 4 -340 -6 l-35
        -10 35 -7 c19 -3 87 -11 150 -17 63 -6 146 -16 183 -21 59 -10 70 -9 80 5 7 8
        17 12 23 8 6 -4 31 -63 54 -132 107 -312 211 -555 377 -882 l116 -227 -34 -43
        c-95 -123 -235 -275 -439 -479 -201 -200 -324 -310 -624 -562 -44 -38 -110
        -95 -146 -127 -36 -31 -80 -65 -98 -74 -63 -33 -72 -49 -72 -130 0 -41 5 -87
        10 -101 6 -15 39 -56 74 -91 52 -52 70 -64 96 -64 35 0 78 20 130 59 101 76
        360 203 567 277 289 103 399 132 578 154 50 6 182 24 295 41 113 16 258 33
        322 36 l117 6 221 -226 c371 -379 665 -626 1060 -887 274 -182 465 -290 784
        -445 200 -98 216 -108 210 -128 -14 -47 -64 -168 -123 -294 -33 -72 -61 -140
        -61 -150 0 -10 8 -23 19 -30 10 -6 21 -25 24 -41 5 -23 16 -33 56 -51 59 -25
        84 -26 105 -6 8 8 21 15 29 15 20 0 31 17 45 66 22 76 155 254 245 328 l46 37
        168 -54 c416 -136 835 -228 1238 -272 83 -9 157 -20 165 -24 8 -5 18 -21 21
        -37 18 -78 82 -377 94 -439 7 -38 19 -124 25 -190 6 -66 28 -248 49 -405 30
        -219 40 -334 45 -494 6 -192 8 -212 29 -249 12 -22 34 -49 49 -60 26 -20 29
        -20 110 -3 116 23 129 35 145 130 7 43 27 131 43 196 16 65 39 167 51 227 53
        278 156 621 261 868 61 145 213 445 231 456 5 4 41 10 81 13 248 23 605 88
        896 162 148 37 236 63 522 154 25 8 36 -1 152 -118 166 -167 355 -413 403
        -522 17 -38 27 -48 60 -59 38 -12 45 -12 97 12 62 29 156 111 156 137 0 9 -36
        92 -80 183 -44 91 -94 201 -111 244 -56 140 -120 336 -112 344 4 4 100 54 213
        111 248 127 451 244 668 389 l164 109 101 -79 c140 -109 413 -389 592 -606
        328 -397 676 -784 730 -812 65 -35 221 74 283 198 29 58 30 63 16 90 -8 16
        -27 35 -43 43 -69 36 -230 247 -457 601 -81 127 -170 268 -197 315 -58 98
        -333 640 -364 717 l-21 51 130 129 c226 223 474 505 641 731 34 45 67 82 74
        82 35 0 299 -145 349 -192 58 -54 152 -31 194 47 7 14 17 25 22 25 4 0 17 15
        28 32 23 38 27 116 8 139 -7 9 -59 45 -115 82 -85 55 -189 135 -252 192 -11
        11 -1 34 61 136 215 356 409 757 552 1144 l45 120 75 -2 c102 -2 215 -24 456
        -89 253 -68 437 -139 503 -193 45 -38 77 -45 77 -17 0 7 11 23 24 35 37 35 95
        160 108 231 9 56 9 64 -9 88 -15 21 -30 27 -59 28 -27 1 -99 31 -234 97 -275
        134 -439 232 -648 386 -120 88 -113 52 -62 295 57 276 100 602 120 920 6 88
        12 162 15 164 12 12 719 154 1010 202 138 23 253 44 256 46 4 2 84 11 179 20
        l172 15 24 -22 c52 -49 112 6 200 186 37 75 39 84 39 175 0 80 -6 112 -34 202
        -52 164 -66 173 -235 138 -208 -42 -523 -34 -870 25 -437 74 -675 125 -779
        168 l-32 14 -23 144 c-79 495 -251 1079 -462 1564 -69 158 -220 461 -304 608
        -80 142 -87 120 81 284 88 87 124 115 156 125 51 14 73 32 94 75 18 39 12 72
        -22 124 -24 38 -111 89 -149 89 -11 0 -70 -25 -130 -55 -105 -53 -334 -138
        -348 -129 -3 2 -39 50 -79 107 -347 485 -824 973 -1329 1359 -224 171 -630
        435 -784 509 -58 29 -58 39 -12 210 42 151 77 246 117 316 26 47 28 57 20 95
        -19 83 -78 127 -185 135 -80 7 -121 -12 -135 -62 -26 -95 -277 -452 -311 -441
        -8 2 -87 34 -175 71 -324 134 -731 258 -1097 334 -385 79 -729 119 -1121 128
        l-247 6 -21 46 c-30 66 -60 153 -117 337 -57 181 -68 235 -77 379 -10 146 -42
        356 -59 383 -9 16 -81 52 -98 51 -7 -1 -55 -8 -105 -15z m137 -49 c35 -18 36
        -22 14 -54 -20 -27 -72 -51 -111 -50 -22 0 -17 4 24 18 58 20 83 37 83 57 0
        21 -34 25 -125 14 -135 -17 -207 -63 -146 -94 24 -13 33 -13 67 -1 45 16 64
        18 64 7 0 -5 -23 -14 -50 -20 -93 -21 -152 25 -97 75 28 26 73 40 162 52 39 4
        74 9 78 10 4 0 21 -6 37 -14z m53 -141 c3 -20 11 -91 17 -157 25 -279 49 -382
        165 -702 28 -76 37 -112 26 -99 -19 24 -58 129 -116 319 -60 193 -64 211 -80
        402 -18 201 -25 239 -46 236 -8 -2 -52 -11 -99 -22 -47 -10 -111 -22 -142 -26
        -62 -7 -63 -8 -48 -70 21 -93 31 -335 20 -497 -13 -196 -36 -368 -51 -383 -9
        -7 -10 -3 -6 15 14 61 27 154 38 274 15 160 6 512 -15 606 -9 36 -15 68 -16
        71 0 3 22 4 48 1 57 -5 203 23 252 49 47 24 47 24 53 -17z m-21 -151 c-4 -69
        13 -181 49 -322 33 -127 36 -173 14 -191 -20 -17 -45 3 -45 36 0 12 -13 74
        -29 136 -65 252 -68 405 -8 396 20 -3 22 -8 19 -55z m-2522 -1 c0 -23 -29 -49
        -106 -96 -132 -78 -225 -105 -232 -66 -3 18 157 123 238 157 68 28 100 30 100
        5z m169 -215 c164 -249 389 -535 494 -631 18 -16 52 -48 77 -70 57 -51 182
        -197 175 -204 -3 -3 -6 -3 -8 -1 -23 34 -150 172 -253 274 -177 176 -310 343
        -505 636 l-99 149 -53 -40 c-28 -23 -100 -64 -159 -93 -59 -29 -108 -58 -108
        -65 0 -7 7 -26 15 -42 21 -41 91 -330 109 -452 22 -151 35 -438 24 -564 -16
        -194 -28 -264 -20 -119 12 224 3 576 -19 702 -23 142 -84 382 -112 447 -18 42
        -19 50 -7 54 63 21 258 130 288 161 21 21 40 35 43 32 4 -3 57 -82 118 -174z
        m8 -149 c12 -13 38 -50 59 -83 48 -76 274 -381 374 -505 97 -120 229 -301 264
        -361 28 -49 26 -79 -4 -79 -12 0 -41 35 -83 98 -36 53 -97 138 -136 187 -233
        298 -511 677 -527 720 -6 15 11 45 25 45 4 0 17 -10 28 -22z m2526 -453 c115
        -277 247 -614 253 -644 7 -34 -15 -57 -38 -38 -8 6 -50 102 -93 212 -42 110
        -101 256 -130 325 -118 283 -128 309 -114 326 27 33 44 9 122 -181z m767 -95
        c523 -52 973 -147 1445 -305 179 -60 430 -156 497 -191 l31 -16 -29 -24 c-55
        -46 -159 -112 -244 -156 -82 -41 -106 -69 -68 -76 25 -5 200 89 282 151 38 29
        79 59 90 67 l21 14 -20 -22 c-47 -55 -234 -176 -333 -215 -41 -16 -43 -16 -62
        3 -12 12 -18 25 -15 30 3 5 52 33 110 63 110 58 235 144 235 162 0 5 -64 36
        -142 68 -649 260 -1293 404 -2011 448 -164 10 -377 6 -377 -7 0 -3 19 -41 41
        -87 52 -103 113 -196 206 -311 l72 -90 -21 -23 -22 -23 -24 22 c-36 34 -133
        155 -178 223 -57 85 -156 274 -151 288 2 7 28 -35 57 -93 64 -129 139 -244
        216 -336 63 -75 74 -85 86 -78 19 12 5 44 -45 104 -78 95 -148 201 -206 315
        -28 56 -51 105 -51 109 0 11 469 0 610 -14z m2514 -24 c18 -8 41 -24 50 -37
        24 -35 0 -54 -64 -52 -75 2 -142 48 -127 87 8 21 93 22 141 2z m-3897 -35
        c-12 -60 -68 -188 -116 -266 -82 -131 -88 -145 -71 -156 11 -7 23 0 48 28 41
        48 143 247 172 338 26 80 43 107 29 46 -32 -142 -188 -431 -234 -431 -13 0
        -45 26 -45 36 0 3 18 29 39 58 46 62 101 168 141 273 29 76 30 99 4 89 -8 -3
        -82 -17 -166 -31 -312 -53 -806 -175 -815 -202 -4 -12 133 -168 286 -326 115
        -119 397 -369 582 -517 310 -247 577 -412 899 -555 96 -42 181 -84 188 -93 17
        -22 15 -40 -7 -51 -15 -8 -55 6 -196 69 -447 200 -809 447 -1280 872 -210 190
        -566 562 -565 592 1 6 10 0 21 -14 217 -263 603 -633 921 -883 249 -195 376
        -281 612 -412 119 -65 442 -215 464 -215 5 0 15 6 21 14 15 18 23 14 -194 111
        -200 90 -410 207 -585 326 -311 211 -730 573 -988 853 -195 212 -216 236 -209
        242 16 16 441 127 632 165 127 25 371 67 399 68 15 1 17 -4 13 -28z m3765 -68
        c33 -22 55 -28 113 -31 l72 -4 -37 -87 c-34 -80 -110 -327 -110 -361 0 -8 -5
        -22 -11 -30 -7 -11 -9 -6 -4 20 16 84 80 300 107 362 17 38 29 71 26 74 -3 2
        -31 9 -62 14 -31 5 -75 19 -98 32 -23 13 -43 19 -45 13 -20 -58 -234 -355
        -255 -355 -5 0 22 38 59 84 38 46 97 131 132 190 35 58 66 106 68 106 2 0 22
        -12 45 -27z m58 -108 c9 -11 6 -30 -18 -93 -71 -182 -118 -451 -110 -625 2
        -67 0 -81 -14 -91 -30 -19 -42 7 -46 107 -6 135 13 290 54 445 38 144 67 225
        92 255 18 21 26 21 42 2z m-4819 -437 c72 -84 92 -115 86 -132 -11 -29 -42
        -16 -88 37 -81 93 -94 114 -79 132 20 24 33 18 81 -37z m4771 -190 c-5 -138
        13 -263 50 -369 19 -52 28 -65 47 -67 27 -4 28 -6 -15 128 -22 72 -27 109 -31
        243 -4 107 -2 162 5 169 29 29 575 -320 892 -569 264 -207 595 -518 821 -770
        215 -240 487 -593 473 -614 -9 -15 -150 -6 -281 18 -94 16 -121 12 -104 -16
        14 -22 184 -50 316 -52 105 -1 114 -3 70 -10 -57 -11 -163 -4 -280 17 -106 20
        -113 22 -125 44 -8 16 -6 22 12 34 20 12 39 11 163 -10 121 -21 215 -25 215
        -8 0 9 -244 326 -330 429 -387 463 -846 876 -1365 1225 -113 76 -437 270 -451
        270 -18 0 -27 -106 -19 -213 8 -97 35 -219 60 -269 10 -22 12 -35 4 -49 -17
        -32 -52 -21 -75 23 -48 92 -87 409 -62 496 7 23 13 42 13 42 1 0 -1 -55 -3
        -122z m-6043 -30 l-2 -93 -9 80 c-6 44 -11 81 -13 83 -3 3 -184 -105 -305
        -183 -206 -132 -529 -373 -700 -524 -162 -142 -260 -235 -260 -245 0 -14 185
        -134 282 -184 40 -20 144 -66 231 -102 86 -35 157 -68 157 -72 0 -15 -323 120
        -430 179 -100 56 -260 165 -260 177 0 28 384 359 624 538 230 172 638 437 674
        438 9 0 12 -24 11 -92z m61 -348 c-6 -135 -15 -288 -20 -340 -5 -52 -12 -135
        -16 -185 -3 -49 -12 -112 -19 -140 l-14 -50 0 42 c-1 23 4 45 9 48 6 3 10 36
        10 73 0 37 7 126 15 197 8 72 18 274 22 450 6 260 9 304 15 235 5 -48 4 -193
        -2 -330z m-63 -2 c-8 -294 -44 -650 -73 -713 -8 -16 -12 -22 -9 -11 9 32 35
        201 35 227 0 13 2 44 5 69 20 160 25 247 30 465 4 202 4 195 12 195 3 0 3
        -105 0 -232z m-1567 -353 c0 -8 -9 -15 -20 -15 -21 0 -26 -10 -11 -25 6 -6 2
        -19 -10 -34 -10 -13 -19 -19 -19 -14 0 5 5 14 12 21 16 16 1 29 -20 15 -11 -7
        -16 -22 -15 -39 1 -19 -8 -41 -26 -63 -24 -29 -30 -32 -47 -22 -12 7 -13 11
        -4 9 20 -4 60 37 59 60 0 13 -2 13 -9 -4 -9 -23 -28 -39 -36 -31 -8 8 88 127
        115 142 33 18 31 18 31 0z m114 -124 c55 -60 37 -52 -32 13 l-43 41 -27 -34
        c-14 -19 -50 -62 -80 -95 -75 -86 -75 -84 -46 -146 13 -29 22 -55 20 -57 -6
        -7 -56 93 -56 111 0 9 32 53 71 98 40 46 83 100 97 121 23 34 27 36 35 20 5
        -10 33 -43 61 -72z m-4248 51 c45 -23 110 -90 124 -128 21 -54 12 -124 -24
        -188 -41 -73 -63 -95 -136 -132 -49 -26 -65 -29 -145 -29 -75 0 -98 4 -138 25
        -190 96 -168 336 40 444 80 41 207 45 279 8z m3974 -142 c0 -5 -4 -10 -10 -10
        -5 0 -10 5 -10 10 0 6 5 10 10 10 6 0 10 -4 10 -10z m509 -93 c121 -81 241
        -142 436 -222 77 -32 142 -59 144 -61 11 -10 -9 -14 -26 -5 -10 6 -96 44 -192
        85 -169 72 -389 195 -461 258 -46 39 -27 28 99 -55z m1207 -104 c-3 -25 -36
        -159 -72 -296 -36 -138 -78 -308 -94 -378 -48 -210 -145 -517 -237 -747 -47
        -119 -95 -259 -107 -311 -23 -103 -42 -129 -72 -99 -15 15 -15 23 1 115 9 54
        32 134 50 178 53 126 115 284 142 360 41 117 129 424 153 530 12 55 44 183 71
        285 26 102 60 228 73 280 14 52 25 86 26 74 0 -20 -9 -57 -76 -309 -19 -71
        -53 -206 -75 -300 -74 -315 -171 -609 -313 -951 -27 -63 -58 -217 -49 -240 3
        -8 11 -14 19 -14 14 0 23 30 44 134 7 32 29 99 50 150 122 293 233 631 285
        867 14 62 53 216 86 343 34 127 68 264 77 304 17 81 28 97 18 25z m5714 -98
        c0 -9 -17 -39 -39 -68 -21 -29 -58 -89 -81 -134 -30 -57 -49 -83 -62 -83 -25
        0 -23 10 21 98 69 137 161 244 161 187z m-7264 -142 c37 -145 55 -310 48 -420
        -4 -51 -9 -91 -12 -88 -3 2 -4 63 -3 134 3 167 -20 304 -84 506 -3 11 1 7 10
        -8 9 -16 28 -72 41 -124z m-67 17 c37 -135 51 -240 51 -374 0 -71 -3 -127 -6
        -124 -3 3 -7 71 -9 149 -3 138 -15 222 -52 352 -8 31 -18 57 -22 57 -10 0
        -177 -204 -291 -355 -121 -161 -259 -364 -350 -515 -35 -58 -70 -113 -78 -123
        -10 -11 -12 -21 -6 -27 5 -5 70 -14 144 -20 225 -17 248 -21 266 -42 16 -17
        16 -20 1 -35 -9 -9 -31 -17 -49 -17 -53 0 -392 35 -398 41 -5 6 78 0 293 -19
        100 -9 130 -9 140 1 25 25 -21 38 -171 50 -211 17 -252 22 -252 30 0 13 180
        304 268 431 166 243 475 635 492 625 4 -3 17 -41 29 -85z m7123 -331 c-7 -28
        -12 -61 -12 -74 0 -31 -23 -50 -39 -31 -13 16 8 136 29 161 24 29 35 1 22 -56z
        m3388 -19 c43 -22 66 -50 80 -99 7 -26 5 -33 -10 -41 -48 -26 -88 3 -121 89
        -28 75 -17 86 51 51z m-95 -70 c9 -28 28 -64 41 -80 l25 -29 -48 -42 c-26 -23
        -88 -83 -137 -133 -49 -50 -83 -80 -76 -67 6 13 62 72 123 131 l110 108 -37
        76 -38 76 -61 -31 c-78 -40 -241 -99 -270 -98 -12 0 26 17 85 38 59 22 140 54
        180 74 40 19 76 33 80 30 3 -2 14 -26 23 -53z m-101 -106 c31 -12 15 -40 -79
        -147 -52 -59 -104 -126 -116 -148 -23 -46 -52 -50 -57 -7 -4 37 17 73 89 154
        34 38 79 88 100 112 41 45 40 45 63 36z m-169 -366 c-80 -130 -175 -366 -162
        -402 14 -35 42 1 70 91 29 90 124 285 142 290 9 3 143 -231 218 -383 194 -388
        368 -855 477 -1279 73 -279 151 -678 136 -693 -9 -8 -108 25 -224 76 -203 88
        -441 246 -670 444 -44 39 -66 46 -77 27 -10 -16 24 -49 190 -181 227 -182 485
        -328 713 -402 45 -15 82 -31 82 -36 0 -12 -198 62 -313 118 -211 101 -478 285
        -653 448 l-48 44 22 22 22 22 39 -29 c22 -17 100 -79 173 -138 192 -156 481
        -322 653 -377 22 -7 46 -17 53 -23 15 -12 35 9 27 30 -2 6 -13 65 -25 130 -91
        503 -238 991 -440 1462 -113 266 -334 694 -355 688 -18 -5 -93 -159 -125 -257
        -40 -122 -77 -157 -100 -95 -6 17 0 46 24 111 49 132 153 334 172 334 3 0 -7
        -19 -21 -42z m-97 -80 c4 -30 -32 -121 -55 -139 -11 -10 -17 -9 -30 4 -15 14
        -14 21 7 79 13 35 28 69 33 76 16 21 42 9 45 -20z m-13961 -201 c50 -19 120
        -73 138 -107 48 -92 31 -204 -40 -276 -166 -166 -459 -57 -446 166 3 52 47
        136 88 167 71 54 187 77 260 50z m12357 -565 c73 -40 90 -74 120 -242 62 -341
        64 -441 15 -650 -35 -150 -113 -283 -212 -362 -59 -46 -77 -54 -165 -73 -52
        -10 -71 -10 -106 0 -75 23 -119 51 -182 117 -112 116 -138 201 -164 532 -6 81
        -6 133 2 165 14 63 69 210 80 217 5 4 30 38 55 78 50 79 143 179 187 203 45
        24 214 52 271 46 28 -3 72 -17 99 -31z m-9487 -415 c25 -32 67 -83 94 -114 40
        -46 47 -59 38 -74 -21 -40 -64 -11 -161 110 -76 94 -169 191 -184 191 -12 0
        -105 -277 -163 -492 -76 -281 -179 -814 -161 -832 14 -14 457 76 585 119 215
        72 481 199 644 309 93 62 116 74 132 65 28 -15 23 -33 -18 -70 -123 -107 -499
        -299 -748 -381 -81 -27 -566 -129 -604 -127 -38 1 40 20 220 54 337 64 420 90
        729 234 236 111 420 227 420 268 0 25 -31 12 -126 -52 -145 -99 -452 -247
        -654 -315 -93 -31 -589 -135 -598 -125 -11 11 55 399 108 630 49 214 153 570
        212 724 9 24 10 23 79 -45 39 -38 107 -113 151 -166 61 -74 86 -98 104 -98 13
        0 24 4 24 10 0 16 -128 168 -232 276 -54 55 -98 104 -98 109 0 14 156 -143
        207 -208z m-5192 162 c219 -40 371 -231 338 -425 -36 -210 -224 -354 -462
        -354 -231 0 -411 128 -450 320 -15 73 -6 131 29 208 86 186 319 293 545 251z
        m12657 -756 c14 -16 54 -84 89 -153 35 -69 91 -167 126 -217 35 -51 63 -99 63
        -107 0 -8 -13 -24 -28 -35 -28 -20 -33 -20 -293 -6 -145 8 -299 19 -343 26
        -74 12 -79 15 -94 46 l-15 32 130 138 c134 142 308 303 328 303 6 0 23 -12 37
        -27z m5118 -714 c518 -97 658 -113 971 -108 l224 4 1 -230 c0 -185 4 -240 17
        -280 9 -27 15 -51 13 -52 -2 -2 -68 -10 -147 -17 -241 -24 -781 -119 -1299
        -231 -183 -39 -176 -38 -166 -28 3 4 55 17 114 29 59 12 220 45 357 74 323 67
        792 147 969 165 82 9 143 20 147 27 4 6 3 23 -3 37 -15 40 -32 429 -19 457 17
        38 -2 42 -139 32 -140 -11 -405 2 -580 28 -304 45 -849 159 -873 183 -5 5 49
        -6 120 -25 70 -19 202 -48 293 -65z m1372 -86 c9 -10 28 -56 44 -103 22 -69
        27 -104 28 -186 1 -93 -1 -104 -25 -140 -15 -21 -30 -50 -34 -64 -10 -35 -68
        -120 -82 -120 -7 0 -22 30 -34 68 -19 56 -23 97 -27 255 -5 212 1 276 26 283
        9 3 24 9 32 14 25 14 56 11 72 -7z m-248 -479 c24 -9 19 -43 -6 -53 -13 -5
        -76 -14 -142 -21 -105 -10 -120 -10 -134 4 -34 34 14 49 218 69 19 2 38 5 42
        5 3 1 13 -1 22 -4z m-547 -90 c3 -8 -1 -22 -8 -29 -17 -17 -495 -113 -767
        -155 -260 -39 -324 -53 -450 -96 -56 -19 -107 -32 -112 -29 -6 3 -10 15 -10
        25 0 48 210 109 570 164 129 20 341 58 470 85 263 54 298 58 307 35z m-13637
        -63 c124 -77 211 -146 371 -295 136 -125 236 -234 281 -305 17 -27 17 -30 3
        -45 -23 -23 -41 -11 -129 92 -96 111 -327 324 -443 409 -80 59 -183 123 -196
        123 -25 0 -6 -458 33 -800 18 -157 81 -550 96 -596 4 -15 4 -16 -4 -4 -13 19
        -54 233 -81 415 -55 375 -92 1005 -59 1005 15 0 146 -82 233 -145 101 -75 264
        -224 401 -369 65 -69 125 -126 132 -126 45 0 -39 110 -216 281 -170 164 -309
        276 -446 358 -58 34 -106 64 -106 67 0 9 54 -18 130 -65z m-3205 -118 c132
        -41 215 -151 215 -286 0 -161 -177 -286 -364 -257 -204 32 -336 221 -267 382
        64 151 235 217 416 161z m15780 -138 c-22 -7 -145 -47 -273 -89 -270 -87 -332
        -115 -423 -188 -101 -81 -309 -284 -309 -302 0 -42 38 -15 215 154 150 144
        212 183 375 239 153 53 433 141 447 141 17 0 15 -59 -13 -370 -27 -297 -124
        -870 -147 -870 -29 0 -346 303 -479 458 -75 86 -118 115 -118 78 0 -36 311
        -363 498 -524 91 -78 83 -81 -11 -4 -155 126 -507 496 -507 533 0 5 12 15 26
        21 24 11 29 9 58 -23 166 -190 246 -274 357 -376 125 -114 163 -143 175 -130
        14 14 107 530 113 627 0 8 3 35 7 60 7 59 15 132 20 200 14 179 17 219 18 257
        1 49 -5 58 -31 44 -10 -5 -124 -44 -253 -86 -129 -42 -262 -89 -295 -105 -70
        -33 -169 -113 -305 -245 -112 -109 -132 -122 -154 -99 -9 8 -16 19 -16 23 0
        14 266 268 331 316 98 72 161 100 413 182 127 41 242 78 256 83 14 5 34 8 45
        8 11 0 2 -6 -20 -13z m-6231 -526 c21 -10 36 -44 102 -238 42 -124 77 -239 78
        -255 2 -46 -23 -54 -96 -29 -223 74 -464 177 -481 204 -22 36 1 67 116 152
        112 84 245 177 252 177 2 0 15 -5 29 -11z m2909 -87 c39 -99 49 -255 32 -484
        -29 -380 -59 -566 -136 -846 -21 -79 -39 -146 -39 -149 0 -3 7 -2 17 1 9 4 73
        16 142 27 69 11 128 22 131 24 9 5 252 -34 310 -51 74 -21 206 -83 277 -131
        79 -52 179 -147 210 -200 13 -23 28 -43 33 -43 4 0 22 42 40 93 63 181 203
        448 353 672 44 65 118 147 266 295 113 113 218 220 232 238 43 52 90 12 54
        -46 -9 -15 -110 -119 -224 -232 -150 -148 -224 -230 -268 -295 -87 -130 -215
        -356 -273 -483 -47 -105 -140 -383 -140 -420 0 -29 -64 -145 -90 -164 -15 -11
        -65 -25 -115 -33 -84 -14 -98 -14 -205 5 -179 32 -264 56 -353 100 -95 47 -87
        45 38 -6 98 -40 338 -94 420 -94 78 0 177 19 205 39 34 24 78 106 86 161 12
        80 100 333 157 453 56 118 167 314 238 419 77 113 159 205 291 325 183 166
        261 265 221 280 -12 5 -27 -6 -52 -38 -19 -24 -116 -123 -215 -220 -194 -189
        -252 -261 -378 -472 -107 -177 -191 -355 -239 -500 -22 -67 -43 -129 -46 -137
        -6 -17 -7 -14 -23 48 -8 32 -30 63 -82 118 -146 153 -325 242 -573 284 -136
        23 -160 22 -344 -11 -131 -24 -134 -24 -122 -1 13 25 97 333 116 426 25 126
        64 487 71 661 9 227 -19 415 -62 415 -18 0 -18 -10 2 -122 21 -118 14 -382
        -15 -643 -32 -274 -67 -441 -143 -675 -25 -77 -38 -102 -69 -131 l-39 -37 0
        -98 c0 -53 -2 -95 -4 -93 -2 2 -6 43 -10 90 l-6 87 43 48 c34 38 51 70 75 144
        55 168 117 429 121 510 0 8 3 35 6 60 12 87 19 160 32 300 12 135 7 380 -10
        470 -14 77 -15 86 -1 97 23 17 41 6 57 -35z m-9226 -614 c-3 -8 -6 -5 -6 6 -1
        11 2 17 5 13 3 -3 4 -12 1 -19z m111 -418 c76 -258 184 -554 302 -825 78 -179
        240 -495 255 -495 24 0 218 321 245 407 16 48 47 110 59 118 6 3 19 -4 29 -16
        20 -21 20 -21 -4 -91 -37 -109 -228 -436 -280 -478 -9 -8 10 26 43 75 142 212
        262 460 235 487 -17 17 -39 -7 -58 -65 -20 -63 -124 -255 -206 -379 l-60 -92
        -17 23 c-25 33 -204 394 -269 541 -144 329 -288 756 -362 1073 -34 150 -21
        130 19 -28 21 -82 52 -197 69 -255z m-3568 249 c183 -42 292 -193 251 -347
        -16 -56 -76 -121 -141 -150 -70 -32 -188 -35 -265 -7 -121 43 -203 137 -212
        244 -5 52 -2 68 21 115 57 116 204 178 346 145z m16028 -67 c67 -50 245 -166
        352 -230 19 -11 132 -68 250 -127 118 -59 216 -108 218 -110 2 -1 -6 -18 -17
        -36 -26 -45 -51 -134 -51 -181 0 -21 -4 -38 -8 -38 -5 0 -30 11 -58 24 -93 45
        -242 96 -425 145 -217 59 -302 77 -429 91 -52 6 -96 13 -99 17 -8 8 139 -6
        238 -23 105 -18 466 -115 556 -149 83 -31 83 -31 48 -1 -26 23 -27 26 -12 41
        14 14 21 13 80 -15 35 -16 69 -30 76 -30 6 0 13 -6 16 -12 2 -7 10 7 17 32 7
        25 21 62 31 83 11 21 17 43 13 49 -4 6 -85 48 -180 94 -96 46 -211 105 -256
        130 -97 55 -379 241 -423 278 -56 47 -14 26 63 -32z m-343 -312 c271 -32 399
        -57 599 -118 68 -20 91 -45 63 -67 -15 -11 -28 -10 -80 6 -199 62 -370 93
        -739 134 -66 7 -93 29 -63 51 24 18 17 18 220 -6z m-128 -126 c-4 -4 -82 -10
        -174 -15 -267 -13 -519 -68 -773 -169 -113 -45 -140 -60 -140 -76 0 -24 28
        -21 96 8 220 94 520 169 758 188 140 11 326 13 349 4 13 -5 10 -18 -14 -86
        -100 -274 -238 -583 -366 -823 -107 -201 -252 -445 -264 -445 -15 0 -98 112
        -131 178 -30 61 -53 77 -64 47 -9 -22 37 -108 100 -193 31 -40 47 -68 37 -62
        -25 13 -128 166 -146 216 -13 36 -13 40 6 56 27 23 43 14 65 -35 40 -92 126
        -200 143 -181 26 28 206 348 295 524 113 223 195 409 274 620 28 75 54 143 57
        152 16 40 -311 30 -571 -18 -154 -28 -321 -77 -477 -139 -61 -25 -117 -45
        -123 -45 -7 0 -20 7 -29 16 -23 23 -5 40 84 82 186 86 532 174 756 191 129 10
        260 13 252 5z m111 -11 c-16 -2 -40 -2 -55 0 -16 2 -3 4 27 4 30 0 43 -2 28
        -4z m1260 -56 c21 -25 -18 -139 -73 -212 -12 -16 -24 -37 -27 -45 -3 -8 -3 17
        -1 55 5 77 20 135 34 135 12 0 11 -7 -2 -31 -16 -32 -19 -79 -5 -79 16 0 51
        77 61 133 8 43 -9 51 -27 12 -6 -14 -15 -25 -20 -25 -11 0 -10 7 7 40 17 32
        36 38 53 17z m-3930 -157 c62 -11 143 -32 180 -46 189 -71 374 -210 412 -310
        27 -70 33 -214 10 -214 -5 0 -5 13 0 30 5 16 5 44 0 62 -5 18 -14 60 -21 92
        -10 53 -18 67 -68 116 -70 70 -158 130 -257 175 -98 45 -154 61 -292 85 l-111
        19 -143 -25 c-79 -13 -154 -26 -167 -29 -32 -8 -114 -93 -107 -112 3 -8 9 -33
        12 -56 3 -23 7 -52 10 -64 6 -31 62 -87 109 -111 57 -28 260 -92 307 -97 43
        -4 68 -19 68 -41 0 -8 1 -14 3 -14 1 0 40 -13 87 -29 248 -84 523 -98 558 -29
        10 19 11 19 9 4 -4 -38 -48 -57 -143 -63 -171 -11 -512 73 -534 132 -7 18 -19
        23 -62 28 -54 5 -221 59 -294 93 -21 10 -57 37 -79 59 -38 38 -41 46 -54 132
        l-14 92 39 36 c54 52 58 53 212 80 171 29 192 30 330 5z m-7748 -14 c0 -7 -19
        -53 -41 -101 -28 -59 -49 -126 -64 -199 -16 -77 -27 -111 -36 -111 -10 0 -14
        14 -13 55 2 74 26 165 75 277 31 70 46 93 60 93 10 0 19 -6 19 -14z m7912 -92
        c160 -80 228 -126 297 -199 64 -69 85 -117 79 -182 -3 -41 -33 -68 -47 -44 -5
        8 -9 33 -9 57 0 108 -102 199 -379 338 -71 35 -93 51 -93 66 0 32 31 25 152
        -36z m-750 -230 c37 -67 114 -112 301 -174 70 -23 129 -46 132 -50 6 -10 -147
        38 -250 78 -87 35 -191 110 -206 149 -5 13 -9 34 -8 46 1 21 1 21 8 2 3 -11
        14 -34 23 -51z m-1766 -29 c100 -19 205 -54 286 -97 133 -71 249 -215 233
        -289 -9 -39 -81 -112 -144 -144 -114 -57 -332 -90 -483 -74 -177 20 -294 40
        -412 71 -108 28 -123 35 -158 72 -50 51 -84 109 -96 163 -8 37 -6 47 19 91 65
        113 209 183 449 217 103 15 180 12 306 -10z m-5543 -162 c3 -5 8 -36 12 -70 6
        -54 5 -63 -9 -63 -9 0 -21 12 -26 26 -11 29 -13 97 -3 107 9 9 21 9 26 0z
        m8307 -28 c10 -12 10 -18 -1 -31 -10 -12 -24 -14 -63 -9 -60 8 -74 18 -56 40
        17 20 103 21 120 0z m-8784 -10 c4 -8 -1 -30 -10 -49 -9 -19 -16 -38 -16 -43
        0 -16 -99 -176 -127 -205 -29 -30 -58 -36 -66 -14 -3 7 23 57 57 110 35 52 71
        117 81 143 10 26 22 54 28 61 13 17 46 15 53 -3z m-523 -442 c-9 -37 -276
        -329 -478 -525 -197 -192 -391 -364 -681 -606 -68 -57 -124 -106 -124 -110 0
        -4 18 -31 40 -60 21 -29 49 -80 61 -113 12 -32 27 -59 34 -59 7 0 80 37 161
        82 187 102 231 122 434 196 306 111 363 123 870 193 335 45 314 43 360 39 22
        -2 4 -6 -45 -11 -82 -8 -510 -67 -693 -95 -57 -8 -150 -28 -207 -45 -122 -35
        -408 -136 -497 -176 -85 -37 -292 -148 -353 -189 l-49 -33 -13 49 c-16 64 -55
        140 -93 184 l-31 34 53 50 c29 27 80 71 113 98 33 26 96 80 140 119 44 39 125
        109 180 155 236 199 676 646 795 808 27 37 30 38 23 15z m2460 -41 c50 -51 56
        -60 43 -71 -13 -11 -24 -5 -72 42 -40 38 -55 59 -51 71 4 9 10 16 14 16 5 0
        35 -26 66 -58z m-2257 23 c3 -8 -9 -41 -26 -72 -101 -178 -296 -382 -593 -620
        -251 -201 -361 -279 -498 -352 -102 -55 -139 -63 -139 -33 0 25 21 42 109 88
        121 63 245 149 477 336 308 246 479 427 608 641 18 29 53 36 62 12z m2428
        -124 c70 -40 186 -78 276 -91 79 -11 97 -20 85 -40 -9 -15 -98 -7 -190 16 -77
        20 -245 100 -245 117 0 14 9 27 18 27 2 0 28 -13 56 -29z m8374 -182 c46 -40
        114 -89 240 -174 1 -1 -16 -22 -39 -46 -46 -49 -79 -108 -79 -139 0 -11 -3
        -20 -6 -20 -4 0 -34 17 -68 37 -33 21 -110 63 -171 95 -60 32 -104 58 -97 58
        16 0 168 -76 247 -124 61 -37 85 -44 85 -26 0 6 -7 10 -15 10 -22 0 -92 46
        -104 69 -8 14 -7 22 4 31 13 11 22 9 51 -6 20 -10 47 -29 60 -41 13 -12 24
        -18 24 -14 0 5 18 29 40 54 22 25 40 50 40 55 0 5 -42 39 -92 76 -97 68 -199
        155 -185 156 5 0 34 -23 65 -51z m-321 -25 c67 -22 214 -91 235 -111 21 -19
        24 -49 4 -56 -7 -3 -58 17 -112 44 -114 57 -187 81 -220 73 -46 -12 -74 38
        -31 56 34 13 71 12 124 -6z m-153 -93 c80 -11 158 -27 173 -35 36 -19 21 -20
        -40 -1 -26 8 -103 20 -172 26 -69 7 -125 16 -125 21 0 11 -4 11 164 -11z
        m-181 2 c-21 -8 -15 -33 10 -42 12 -4 58 -11 102 -15 99 -8 197 -25 214 -36
        15 -9 -41 -87 -203 -285 -197 -241 -573 -634 -594 -621 -5 3 -24 43 -42 88
        -38 97 -54 118 -72 100 -13 -13 -11 -22 52 -182 14 -36 16 -50 7 -40 -13 13
        -67 143 -81 196 -4 14 1 27 14 39 28 25 41 11 84 -93 18 -46 36 -85 39 -89 15
        -15 309 284 512 522 85 98 275 340 275 348 0 11 -69 26 -165 37 -55 6 -115 13
        -133 16 -49 9 -70 65 -24 63 11 0 12 -3 5 -6z m961 -118 c8 -22 -10 -63 -42
        -95 -15 -15 -37 -39 -49 -53 -30 -37 -43 -34 -43 12 0 74 113 189 134 136z
        m-6604 -146 c0 -6 -20 -38 -44 -72 -56 -80 -91 -150 -112 -226 -13 -46 -22
        -61 -33 -59 -50 11 57 266 151 360 18 18 38 17 38 -3z m-3740 -269 c85 -8 118
        -14 127 -26 29 -39 -21 -69 -85 -52 -42 10 -112 4 -112 -11 0 -13 220 -240
        355 -365 353 -328 736 -612 1150 -856 186 -109 644 -336 655 -324 16 17 51
        148 55 212 3 36 8 68 11 71 16 14 -7 -152 -31 -226 -14 -46 -28 -83 -30 -83
        -8 0 -321 149 -390 185 -538 284 -969 589 -1418 1003 -163 151 -400 398 -393
        410 2 4 47 4 98 0 104 -8 131 -4 126 20 -3 14 -21 18 -98 25 -52 4 -117 11
        -145 16 -74 12 -12 13 125 1z m3535 -236 c0 -55 -3 -69 -15 -69 -11 0 -16 15
        -18 59 -3 66 2 90 21 83 8 -2 12 -26 12 -73z m3844 47 c8 -15 4 -31 -19 -72
        -81 -144 -148 -314 -174 -441 -22 -108 -38 -360 -31 -468 11 -156 62 -420 81
        -420 13 0 233 109 359 177 272 149 625 374 625 399 0 7 -52 50 -115 95 -127
        90 -149 114 -119 136 10 7 21 13 26 13 14 0 248 -170 248 -181 0 -8 -77 45
        -192 133 -39 30 -78 37 -78 15 0 -18 24 -39 153 -131 59 -42 107 -79 107 -81
        0 -9 -283 -194 -440 -287 -176 -105 -548 -298 -574 -298 -31 0 -83 248 -92
        440 -8 154 9 387 36 498 27 113 90 270 145 364 50 85 55 108 25 108 -36 0
        -137 -197 -195 -382 -42 -132 -57 -260 -58 -483 -1 -206 10 -297 52 -462 11
        -40 15 -73 11 -73 -5 0 -20 49 -34 108 -33 139 -60 426 -45 490 5 25 9 71 9
        101 -3 163 44 339 147 549 76 154 118 199 142 153z m-9630 -180 c52 -73 77
        -192 40 -199 -19 -3 -83 58 -105 100 -17 34 -30 128 -20 153 5 15 9 14 36 -5
        16 -11 38 -33 49 -49z m11252 -428 c165 -346 353 -672 609 -1053 79 -118 232
        -320 264 -349 14 -14 26 -28 26 -31 0 -4 -18 -15 -39 -25 -51 -22 -105 -79
        -146 -150 l-32 -56 -104 113 c-133 143 -316 355 -539 623 -205 246 -444 495
        -585 608 -55 44 -102 81 -104 83 -2 2 0 4 6 4 25 0 189 -143 342 -299 90 -91
        241 -258 335 -371 325 -392 625 -730 647 -730 4 0 22 25 39 55 33 58 100 122
        137 131 13 4 23 11 23 17 0 5 -24 35 -53 66 -116 122 -493 693 -646 978 -109
        203 -278 551 -285 588 -5 29 -5 29 11 -5 9 -19 51 -108 94 -197z m-3059 -151
        c116 -59 319 -189 445 -283 130 -98 363 -327 363 -357 0 -53 -30 -36 -158 90
        -155 152 -206 194 -347 291 -214 146 -395 247 -443 247 -24 0 -38 21 -28 45
        11 29 71 17 168 -33z m-3750 -113 c22 -31 41 -211 32 -317 -8 -99 -39 -237
        -60 -265 -15 -20 -16 -20 -9 -2 42 113 49 161 50 345 0 189 -10 250 -41 250
        -21 0 -25 -16 -15 -67 10 -52 22 -217 15 -210 -2 2 -11 59 -19 127 -7 67 -16
        125 -19 128 -9 8 26 43 38 39 5 -2 18 -14 28 -28z m6491 -81 c204 -215 287
        -310 451 -517 98 -123 217 -276 264 -340 47 -64 94 -123 105 -132 24 -20 19
        -53 -9 -57 -25 -4 -73 47 -158 168 -125 176 -460 583 -620 753 -167 177 -187
        207 -134 207 16 0 48 -26 101 -82z m-3083 36 c374 -109 610 -225 825 -406 98
        -82 295 -278 281 -278 -5 0 -71 60 -145 133 -75 73 -173 161 -218 195 -121 92
        -301 186 -484 253 -261 95 -409 134 -424 110 -10 -18 12 -38 48 -44 49 -7 196
        -52 352 -108 182 -66 351 -155 481 -252 103 -77 344 -304 344 -324 0 -17 -381
        -133 -635 -192 -258 -60 -785 -145 -801 -129 -3 3 6 23 21 43 40 61 29 99 -18
        58 -14 -13 -19 -14 -15 -4 2 8 13 21 25 28 18 12 23 12 37 -3 18 -18 14 -47
        -12 -77 -9 -10 -12 -21 -6 -26 17 -16 444 50 714 110 239 52 670 180 670 197
        0 13 -213 217 -290 279 -100 79 -147 110 -260 170 -110 59 -375 157 -535 199
        -64 16 -117 36 -129 48 -19 19 -19 19 4 38 12 10 27 18 33 18 6 0 68 -16 137
        -36z m-2470 -380 c23 -22 -4 -41 -95 -64 -44 -11 -123 -41 -175 -66 -107 -51
        -311 -184 -307 -199 7 -20 424 -144 672 -199 167 -37 427 -83 628 -110 142
        -20 163 -14 143 37 -25 60 -26 104 -5 123 15 13 22 14 33 5 15 -13 56 -137 55
        -168 0 -10 -11 18 -25 62 -26 85 -36 101 -54 90 -14 -9 -9 -56 14 -127 l15
        -48 -39 0 c-105 0 -509 64 -764 121 -286 65 -706 189 -706 210 0 15 266 188
        347 226 40 18 112 44 160 57 62 16 89 28 91 39 3 14 -5 17 -36 17 -97 0 -279
        -81 -464 -206 -61 -41 -105 -68 -98 -59 25 30 222 155 315 200 104 51 219 86
        255 79 14 -3 32 -12 40 -20z m4104 -316 c51 -150 112 -297 180 -440 31 -65 56
        -120 56 -123 0 -3 -10 -5 -22 -5 -24 0 -121 -52 -154 -82 l-22 -20 -71 104
        c-117 168 -205 276 -324 396 -61 61 -107 112 -101 112 17 0 212 -205 284 -299
        36 -45 96 -126 133 -180 37 -53 74 -97 81 -99 8 -2 34 11 59 28 25 17 62 37
        82 46 20 8 35 18 33 22 -86 165 -160 339 -219 512 -22 63 -42 121 -44 128 -2
        6 -1 12 3 12 4 0 25 -51 46 -112z m-5135 -44 c-8 -29 -93 -216 -116 -254 -2
        -3 17 -13 41 -23 24 -10 52 -27 62 -38 24 -27 31 -24 55 24 26 51 146 207 160
        207 5 0 -20 -35 -56 -77 -36 -43 -80 -108 -98 -145 -33 -66 -34 -67 -47 -43
        -11 21 -55 48 -117 72 -21 8 -21 9 26 108 26 55 58 126 71 157 27 66 35 71 19
        12z m4904 -69 c109 -152 207 -318 207 -349 0 -44 -36 -34 -68 20 -32 55 -169
        262 -230 349 -29 41 -41 67 -36 78 14 38 48 13 127 -98z m-2430 -252 c-13 -2
        -33 -2 -45 0 -13 2 -3 4 22 4 25 0 35 -2 23 -4z m-2590 -23 c-3 -11 -7 -20 -9
        -20 -2 0 -8 9 -14 20 -9 17 -8 20 9 20 14 0 18 -5 14 -20z m67 -22 c24 -26 26
        -46 4 -55 -10 -4 -24 4 -39 23 -21 26 -21 30 -6 41 20 16 17 17 41 -9z m2248
        -5 c12 -23 78 -356 91 -458 6 -44 15 -156 20 -250 25 -411 24 -390 6 -405 -14
        -11 -18 -11 -31 2 -11 11 -18 72 -29 274 -19 329 -27 395 -76 637 -22 109 -37
        202 -34 207 10 16 44 11 53 -7z m5343 -55 c44 -49 51 -88 17 -88 -24 0 -98 75
        -98 100 0 45 34 39 81 -12z m-5497 -119 c14 -68 37 -176 50 -239 14 -63 30
        -169 36 -235 6 -66 28 -250 50 -409 22 -160 40 -315 40 -346 0 -31 3 -105 6
        -163 l7 -106 76 -6 c42 -3 87 -11 100 -16 13 -5 25 -8 27 -6 7 6 73 276 94
        382 57 289 139 575 232 810 49 123 191 420 206 429 6 3 -22 -59 -62 -139 -155
        -307 -288 -704 -356 -1060 -12 -60 -36 -173 -55 -250 -19 -77 -36 -152 -40
        -167 l-5 -27 -41 14 c-23 8 -74 15 -114 15 l-72 0 -7 38 c-3 20 -6 93 -6 162
        0 106 -47 516 -75 660 -2 14 -10 84 -16 155 -12 142 -31 248 -114 630 -5 23
        -4 26 4 14 6 -9 22 -72 35 -140z m5816 87 c0 -31 -70 -126 -118 -159 -44 -31
        -99 -50 -107 -37 -8 13 18 71 54 124 22 31 49 53 92 75 66 33 79 32 79 -3z
        m-2470 -124 c0 -11 -58 -64 -92 -85 -38 -23 -91 -23 -86 1 5 26 107 91 146 92
        17 0 32 -4 32 -8z m-3036 -1164 c3 -13 7 -63 8 -112 3 -75 0 -90 -14 -99 -31
        -21 -41 6 -46 123 l-5 110 27 0 c18 0 27 -6 30 -22z m54 -384 c63 -26 24 -56
        -80 -60 -60 -3 -69 -1 -83 19 -25 35 -19 55 18 60 44 5 105 -3 145 -19z"/>
        <path d="M20160 20704 c-47 -20 -230 -137 -230 -146 0 -17 33 -6 137 46 111
        56 163 90 163 107 0 13 -30 10 -70 -7z"/>
        <path d="M26110 19769 c0 -23 19 -37 74 -53 58 -18 88 -11 84 18 -4 27 -44 45
        -107 49 -43 3 -51 1 -51 -14z"/>
        <path d="M28906 17208 c25 -83 59 -124 93 -113 25 8 26 15 7 60 -23 54 -116
        103 -100 53z"/>
        <path d="M26603 15841 c-47 -9 -91 -25 -104 -36 -73 -66 -113 -112 -155 -177
        -25 -40 -54 -82 -64 -93 -9 -11 -30 -56 -46 -100 -27 -74 -29 -90 -28 -220 0
        -142 21 -307 49 -401 30 -101 127 -218 225 -270 55 -29 169 -25 244 9 127 58
        230 205 283 404 23 86 26 118 26 258 1 138 -4 184 -32 340 -18 99 -40 194 -49
        210 -10 17 -43 44 -77 62 -51 27 -70 32 -125 32 -36 0 -102 -8 -147 -18z m253
        -57 c22 -12 46 -29 53 -37 6 -8 28 -109 47 -223 33 -191 35 -221 30 -344 -3
        -86 -13 -164 -26 -215 -57 -224 -191 -375 -347 -391 -73 -8 -130 14 -197 76
        -93 86 -123 158 -151 373 -26 198 -18 351 18 381 8 6 19 30 24 53 13 54 94
        181 161 254 59 64 84 76 207 94 94 14 126 11 181 -21z"/>
        <path d="M26735 15799 c-16 -5 -63 -14 -104 -20 -70 -11 -79 -15 -128 -62 -67
        -63 -162 -206 -181 -272 -8 -27 -21 -55 -29 -62 -43 -34 -31 -345 21 -541 27
        -101 111 -204 194 -239 81 -34 205 -5 276 64 67 65 144 207 162 298 2 11 6 31
        9 45 27 134 23 280 -15 504 -18 105 -36 200 -41 212 -7 21 -57 53 -112 73 -12
        4 -35 4 -52 0z m122 -143 c46 -72 83 -240 83 -380 0 -72 -23 -216 -48 -301
        -14 -47 -23 -60 -38 -60 -25 0 -24 40 6 165 19 83 21 113 17 240 -5 154 -19
        218 -64 302 -14 25 -22 51 -19 57 13 21 41 11 63 -23z m-51 -821 c8 -20 -37
        -99 -59 -103 -29 -6 -32 28 -6 74 24 45 54 58 65 29z"/>
        <path d="M31280 14017 c-14 -6 -28 -15 -31 -20 -12 -17 -18 -225 -10 -337 9
        -114 33 -220 51 -220 5 0 24 30 42 68 19 37 42 79 51 93 44 66 40 179 -9 342
        -29 94 -37 100 -94 74z m48 -142 c-15 -116 -17 -125 -32 -125 -28 0 -38 27
        -31 87 14 117 33 157 62 129 9 -8 9 -31 1 -91z m-5 -253 c6 -39 5 -57 -4 -68
        -12 -14 -15 -14 -31 6 -18 22 -25 99 -11 114 19 19 38 -2 46 -52z"/>
        <path d="M30237 11003 c-9 -2 -15 -9 -12 -14 9 -14 22 -11 29 6 3 8 4 14 3 14
        -1 -1 -10 -3 -20 -6z"/>
        <path d="M23795 10650 c-79 -12 -202 -48 -257 -76 -67 -34 -144 -107 -158
        -150 -16 -49 9 -125 64 -195 41 -52 51 -58 118 -79 146 -45 306 -73 488 -86
        178 -12 392 30 493 97 132 87 130 168 -8 297 -74 70 -131 102 -254 143 -159
        54 -333 72 -486 49z m410 -74 c175 -52 301 -128 357 -215 37 -59 36 -89 -4
        -128 -132 -125 -446 -155 -821 -79 -139 29 -181 48 -214 98 -14 21 -34 38 -44
        38 -23 0 -48 37 -56 83 -5 31 0 40 38 82 98 107 270 157 514 151 116 -3 156
        -8 230 -30z"/>
        <path d="M23843 10589 c-110 -13 -197 -36 -261 -68 -69 -37 -94 -56 -126 -99
        -22 -31 -23 -37 -12 -70 7 -21 18 -38 25 -38 6 -1 15 -2 21 -3 5 0 23 -21 39
        -45 36 -51 67 -66 206 -94 173 -36 360 -52 472 -41 201 20 340 77 365 150 11
        30 -47 125 -91 149 -15 7 -14 2 6 -37 12 -26 23 -59 23 -74 0 -52 -34 -100
        -61 -84 -5 3 -6 32 -3 63 6 53 4 60 -25 96 -36 45 -36 44 -16 66 14 16 11 19
        -42 43 -88 39 -228 77 -323 87 -95 11 -97 11 -197 -1z m514 -376 c9 -24 -33
        -55 -71 -51 -45 4 -42 37 4 54 48 17 60 17 67 -3z"/>
        <path d="M28844 9418 c-40 -44 -72 -104 -61 -115 9 -8 37 17 37 33 0 7 13 23
        30 35 26 20 50 73 37 85 -2 2 -22 -15 -43 -38z"/>
        <path d="M16235 8658 c11 -82 69 -168 113 -168 18 0 8 47 -24 120 -28 60 -60
        100 -82 100 -11 0 -12 -11 -7 -52z"/>
        <path d="M20580 6822 c0 -5 6 -17 14 -27 13 -18 14 -18 9 8 -5 24 -23 39 -23
        19z"/>
        <path d="M28440 6721 c-42 -23 -68 -51 -104 -113 l-27 -48 24 0 c33 0 99 50
        136 104 50 72 39 93 -29 57z"/>
        <path d="M25948 6571 c-71 -45 -75 -70 -5 -35 37 19 67 44 67 56 0 14 -14 9
        -62 -21z"/>
        <path d="M22937 5068 c-71 -26 13 -66 94 -45 50 12 49 23 -2 37 -22 6 -46 13
        -52 15 -7 2 -25 -1 -40 -7z"/>
        <path d="M15130 17543 c0 -7 -9 -13 -20 -13 -11 0 -20 -5 -20 -10 0 -6 -11 -8
        -25 -4 -16 4 -34 0 -50 -10 -13 -9 -33 -16 -44 -16 -11 0 -22 -9 -26 -19 -3
        -11 -12 -18 -19 -15 -7 3 -20 -4 -30 -15 -22 -25 -29 -130 -9 -138 7 -3 13
        -11 13 -19 0 -15 68 -84 83 -84 5 0 17 -8 26 -18 26 -29 72 -56 136 -81 33
        -13 80 -33 105 -46 25 -13 58 -26 74 -29 15 -3 52 -19 82 -36 30 -17 67 -32
        82 -34 15 -2 47 -13 72 -24 25 -12 90 -40 145 -63 55 -24 104 -49 108 -56 7
        -12 48 -33 122 -63 11 -5 32 -11 47 -14 15 -4 40 -11 55 -18 15 -6 33 -12 38
        -13 59 -14 292 -79 304 -85 9 -4 31 -15 49 -24 17 -9 32 -15 32 -11 0 8 50
        -26 77 -52 12 -13 30 -23 40 -23 10 0 27 -7 37 -15 11 -8 27 -15 35 -15 9 0
        27 -9 41 -20 14 -11 31 -20 38 -20 7 0 40 -13 75 -29 80 -37 183 -55 262 -44
        l60 8 0 43 c1 57 -20 106 -53 123 -15 8 -33 22 -40 32 -7 9 -18 17 -23 17 -10
        0 -122 74 -147 98 -7 6 -22 12 -32 12 -10 0 -22 5 -26 11 -3 6 -26 20 -50 31
        -24 10 -44 23 -44 28 0 5 -9 7 -19 5 -11 -2 -22 3 -25 11 -3 8 -13 14 -21 14
        -9 0 -14 4 -11 9 4 5 -2 7 -12 4 -12 -3 -22 4 -30 21 -6 14 -20 26 -29 26 -10
        0 -23 8 -29 18 -6 9 -56 40 -110 67 -54 28 -105 56 -112 63 -7 6 -22 12 -32
        12 -10 0 -22 5 -25 10 -3 6 -15 10 -25 10 -10 0 -20 4 -22 8 -3 9 -362 187
        -455 226 -32 13 -95 43 -140 65 -45 23 -86 41 -91 41 -5 0 -17 10 -26 23 -9
        12 -14 16 -11 10 3 -7 1 -13 -5 -13 -6 0 -13 7 -16 15 -4 8 -15 15 -25 15 -10
        0 -19 5 -19 11 0 7 -8 18 -17 25 -28 22 -113 64 -129 64 -8 0 -14 4 -14 10 0
        13 -93 9 -102 -4 -5 -7 -11 -6 -18 4 -6 10 -10 11 -10 3z"/>
        <path d="M14856 17263 c-15 -4 -16 -7 -5 -14 10 -6 8 -9 -10 -9 l-23 0 25 -42
        c14 -24 31 -43 38 -43 18 0 22 47 4 57 -8 5 -15 18 -15 29 0 13 4 18 12 13 7
        -4 8 -3 4 4 -4 7 -8 11 -9 11 -1 -1 -11 -4 -21 -6z"/>
        <path d="M13610 15173 c-92 -11 -144 -28 -176 -56 -19 -17 -34 -37 -34 -44 0
        -7 -4 -13 -9 -13 -5 0 -14 -15 -21 -32 -6 -18 -16 -41 -21 -51 -6 -11 -5 -28
        4 -50 8 -17 12 -38 10 -44 -3 -7 0 -13 6 -13 6 0 11 -7 11 -15 0 -29 90 -97
        191 -145 60 -28 68 -29 208 -30 80 0 162 -2 181 -4 19 -3 71 -7 115 -11 44 -4
        89 -9 100 -11 11 -2 38 -6 60 -9 22 -3 67 -10 100 -16 33 -5 74 -12 90 -14 59
        -7 82 -12 95 -20 7 -4 29 -9 49 -10 20 -2 43 -6 52 -10 10 -3 23 -5 30 -4 8 1
        21 -1 29 -4 8 -3 42 -11 74 -17 33 -5 78 -19 100 -29 23 -10 52 -21 66 -24 40
        -8 156 -53 181 -71 13 -9 32 -16 41 -16 15 0 90 -42 108 -60 3 -3 19 -12 35
        -21 108 -56 157 -78 210 -93 28 -7 84 -23 125 -35 146 -42 306 -80 360 -87 30
        -4 60 -10 65 -14 27 -21 140 -32 277 -26 222 9 331 40 324 91 -2 11 3 30 11
        41 7 12 16 44 20 71 10 88 -43 172 -155 246 -23 15 -46 27 -52 27 -6 0 -32 11
        -58 25 -26 13 -56 26 -68 28 -12 1 -32 10 -46 19 -14 9 -45 22 -69 28 -24 7
        -47 17 -50 22 -4 6 -27 14 -50 18 -24 4 -87 19 -139 32 -52 14 -126 30 -165
        37 -38 6 -108 18 -155 26 -47 9 -188 19 -315 24 -145 6 -273 17 -345 30 -63
        11 -141 23 -174 26 -32 3 -95 14 -140 25 -44 10 -97 21 -116 24 -19 3 -44 7
        -55 10 -11 2 -42 7 -70 11 -27 5 -52 9 -55 10 -3 1 -32 5 -65 9 -131 17 -243
        38 -300 57 -76 25 -143 57 -153 72 -6 11 -93 56 -147 78 -25 9 -92 16 -125 12z"/>
        <path d="M16055 11910 c-16 -4 -74 -8 -128 -9 -54 0 -151 -7 -215 -15 -64 -8
        -243 -19 -397 -26 -268 -10 -415 -29 -415 -52 0 -4 -8 -8 -19 -8 -10 0 -24 -7
        -31 -15 -7 -8 -18 -15 -24 -15 -19 0 -57 -58 -63 -95 -4 -23 0 -43 11 -59 9
        -14 16 -32 16 -41 0 -8 4 -15 9 -15 4 0 25 -12 46 -26 21 -14 47 -27 56 -29
        10 -2 26 -8 36 -13 10 -6 23 -10 28 -11 6 0 33 -3 60 -6 95 -10 225 -12 225
        -3 0 5 12 13 27 19 15 6 23 13 18 17 -6 4 -10 17 -11 30 0 18 5 22 32 22 18 0
        48 9 66 19 74 44 293 67 708 76 329 7 400 14 442 45 15 11 32 20 37 20 14 0
        23 39 19 84 -2 28 -9 41 -28 51 -52 27 -107 46 -165 55 -69 11 -296 11 -340 0z"/>
        </g>
    </svg>
